<svg width="43" height="42" viewBox="0 0 43 42" fill="none" xmlns="http://www.w3.org/2000/svg">
<path d="M21.5 36.6397C21.1583 36.6419 20.8223 36.5552 20.5263 36.3885C20.2303 36.2218 19.9851 35.9811 19.8158 35.6912L17.2179 31.325C17.2015 31.2943 17.1745 31.2704 17.1417 31.2572C17.109 31.2441 17.0725 31.2427 17.0388 31.2532L12.0543 32.55C11.7251 32.6347 11.3789 32.6336 11.0502 32.5468C10.7216 32.4601 10.4219 32.2907 10.1812 32.0556C9.94047 31.8204 9.76704 31.5278 9.67823 31.2067C9.58941 30.8857 9.5883 30.5476 9.67501 30.226L11.0152 25.326C11.0246 25.293 11.0225 25.2579 11.0092 25.2262C10.9959 25.1945 10.9721 25.168 10.9417 25.151L6.46255 22.6327C6.16676 22.4659 5.92114 22.226 5.75036 21.9371C5.57959 21.6482 5.48969 21.3205 5.48969 20.9869C5.48969 20.6533 5.57959 20.3255 5.75036 20.0366C5.92114 19.7477 6.16676 19.5078 6.46255 19.341L10.9292 16.8175C10.9598 16.8007 10.9838 16.7742 10.9971 16.7425C11.0104 16.7107 11.0124 16.6755 11.0026 16.6425L9.67501 11.774C9.5883 11.4524 9.58941 11.1143 9.67823 10.7932C9.76704 10.4722 9.94047 10.1796 10.1812 9.94442C10.4219 9.70928 10.7216 9.53989 11.0502 9.45313C11.3789 9.36638 11.7251 9.3653 12.0543 9.44999L17.071 10.759C17.1048 10.7673 17.1404 10.7648 17.1727 10.7519C17.2049 10.739 17.2321 10.7163 17.2502 10.6872L19.8284 6.31224C19.9964 6.02373 20.2395 5.78373 20.5331 5.61655C20.8266 5.44937 21.1602 5.36094 21.5 5.36024C21.8417 5.35806 22.1778 5.44478 22.4737 5.61147C22.7697 5.77817 23.0149 6.01883 23.1842 6.30874L25.7821 10.675C25.7985 10.7056 25.8255 10.7296 25.8583 10.7427C25.8911 10.7559 25.9275 10.7573 25.9613 10.7467L30.9457 9.44999C31.2749 9.3653 31.6211 9.36638 31.9498 9.45313C32.2784 9.53989 32.5781 9.70928 32.8188 9.94442C33.0595 10.1796 33.233 10.4722 33.3218 10.7932C33.4106 11.1143 33.4117 11.4524 33.325 11.774L31.9848 16.674C31.9751 16.707 31.977 16.7422 31.9904 16.774C32.0037 16.8057 32.0276 16.8322 32.0583 16.849L36.5375 19.3672C36.8333 19.534 37.0789 19.774 37.2496 20.0629C37.4204 20.3518 37.5103 20.6795 37.5103 21.0131C37.5103 21.3467 37.4204 21.6744 37.2496 21.9634C37.0789 22.2523 36.8333 22.4922 36.5375 22.659L32.0708 25.1825C32.0406 25.1997 32.0171 25.2262 32.0038 25.2578C31.9905 25.2895 31.9883 25.3245 31.9974 25.3575L33.3375 30.2295C33.4245 30.5521 33.423 30.8913 33.3334 31.2132C33.2437 31.5351 33.0689 31.8283 32.8266 32.0634C32.5843 32.2984 32.283 32.4671 31.9528 32.5526C31.6227 32.638 31.2754 32.6371 30.9457 32.55L25.929 31.241C25.8952 31.2321 25.8594 31.2343 25.827 31.2473C25.7946 31.2602 25.7675 31.2832 25.7498 31.3127L23.1716 35.6877C23.0026 35.9781 22.7575 36.2192 22.4615 36.3865C22.1656 36.5538 21.8294 36.6412 21.4875 36.6397H21.5ZM17.0818 29.4927C17.4232 29.4928 17.7587 29.5802 18.0548 29.7464C18.351 29.9125 18.5974 30.1514 18.7695 30.4395L21.3638 34.8145C21.3768 34.838 21.3963 34.8575 21.4201 34.8708C21.4438 34.8841 21.4709 34.8907 21.4982 34.8897C21.5253 34.8905 21.5521 34.8839 21.5755 34.8706C21.5989 34.8573 21.6181 34.8379 21.6308 34.8145L24.2108 30.4395C24.424 30.0764 24.7542 29.7925 25.1499 29.632C25.5457 29.4715 25.9847 29.4434 26.3984 29.5522L31.4151 30.8595C31.4414 30.8661 31.4689 30.8659 31.4951 30.859C31.5213 30.852 31.5451 30.8385 31.5643 30.8197C31.5835 30.801 31.5973 30.7777 31.6045 30.7521C31.6116 30.7266 31.6118 30.6996 31.605 30.674L30.2666 25.8002C30.1556 25.3972 30.1831 24.9696 30.3449 24.5833C30.5067 24.1969 30.794 23.8732 31.1625 23.6617L35.6416 21.1277C35.6655 21.1147 35.6854 21.0956 35.6992 21.0725C35.713 21.0495 35.7203 21.0232 35.7203 20.9965C35.7203 20.9698 35.713 20.9435 35.6992 20.9204C35.6854 20.8974 35.6655 20.8783 35.6416 20.8652L31.1625 18.347C30.7914 18.1381 30.5013 17.8155 30.337 17.4292C30.1728 17.0429 30.1436 16.6144 30.2541 16.2102L31.5925 11.3102C31.6007 11.2849 31.6014 11.2577 31.5944 11.232C31.5874 11.2063 31.5731 11.183 31.553 11.165C31.5337 11.1455 31.5094 11.1315 31.4826 11.1244C31.4558 11.1173 31.4275 11.1174 31.4008 11.1247L26.4128 12.432C26.0001 12.5408 25.5622 12.5141 25.1666 12.356C24.771 12.1979 24.4396 11.9171 24.2233 11.557L21.629 7.18199C21.616 7.15992 21.5971 7.14164 21.5745 7.12903C21.5518 7.11642 21.5261 7.10993 21.5 7.11024C21.4729 7.10944 21.4461 7.11606 21.4227 7.12936C21.3993 7.14266 21.3801 7.16211 21.3674 7.18549L18.7874 11.5605C18.5733 11.9231 18.2427 12.2065 17.8468 12.3669C17.451 12.5273 17.012 12.5557 16.598 12.4477L11.5813 11.1405C11.5551 11.1339 11.5275 11.134 11.5013 11.141C11.4752 11.148 11.4513 11.1615 11.4321 11.1802C11.4129 11.199 11.3991 11.2223 11.392 11.2478C11.3848 11.2734 11.3846 11.3003 11.3914 11.326L12.7388 16.1945C12.8498 16.5976 12.8223 17.0251 12.6605 17.4115C12.4986 17.7978 12.2114 18.1216 11.8429 18.333L7.36376 20.867C7.33806 20.8788 7.31642 20.8977 7.30148 20.9213C7.28653 20.9449 7.27891 20.9722 7.27955 21C7.27873 21.0264 7.28551 21.0526 7.29913 21.0755C7.31274 21.0984 7.33265 21.1171 7.35659 21.1295L11.8358 23.6495C12.2066 23.8586 12.4966 24.1812 12.6608 24.5675C12.825 24.9537 12.8543 25.3821 12.7441 25.7862L11.4058 30.6862C11.3975 30.7116 11.3968 30.7387 11.4038 30.7645C11.4108 30.7902 11.4251 30.8134 11.4452 30.8315C11.4646 30.8508 11.489 30.8647 11.5157 30.8718C11.5425 30.8789 11.5707 30.8789 11.5975 30.8717L16.5855 29.5645C16.747 29.5196 16.9138 29.4955 17.0818 29.4927Z" fill="white"/>
<path d="M21.5 27.7813C20.1269 27.7813 18.7846 27.3835 17.6428 26.6384C16.5011 25.8933 15.6112 24.8342 15.0858 23.5951C14.5603 22.356 14.4228 20.9925 14.6907 19.677C14.9586 18.3616 15.6198 17.1533 16.5908 16.2049C17.5617 15.2566 18.7988 14.6107 20.1455 14.3491C21.4923 14.0874 22.8882 14.2217 24.1569 14.7349C25.4255 15.2482 26.5098 16.1174 27.2726 17.2325C28.0355 18.3477 28.4427 19.6588 28.4427 21C28.4403 22.7978 27.7081 24.5213 26.4066 25.7925C25.1051 27.0637 23.3406 27.7789 21.5 27.7813ZM21.5 15.9688C20.4812 15.9688 19.4853 16.2638 18.6382 16.8167C17.7911 17.3695 17.1309 18.1553 16.7411 19.0746C16.3512 19.994 16.2492 21.0056 16.4479 21.9816C16.6467 22.9575 17.1373 23.854 17.8577 24.5576C18.578 25.2613 19.4959 25.7404 20.4951 25.9346C21.4943 26.1287 22.53 26.0291 23.4712 25.6483C24.4124 25.2675 25.2169 24.6226 25.7829 23.7952C26.3489 22.9678 26.651 21.9951 26.651 21C26.6491 19.6662 26.1058 18.3876 25.1402 17.4444C24.1746 16.5013 22.8656 15.9706 21.5 15.9688Z" fill="white"/>
</svg>
