<svg width="17" height="17" viewBox="0 0 17 17" fill="none" xmlns="http://www.w3.org/2000/svg">
<path d="M5.1 6.8V12.4667M11.9 12.4667V9.63333C11.9 9.03217 11.6612 8.45564 11.2361 8.03056C10.811 7.60547 10.2345 7.36667 9.63333 7.36667C9.03217 7.36667 8.45564 7.60547 8.03056 8.03056C7.60547 8.45564 7.36667 9.03217 7.36667 9.63333V12.4667V6.8M4.53333 5.1H5.66667M1.7 0.566666H15.3C15.6006 0.566666 15.8888 0.68607 16.1014 0.898611C16.3139 1.11115 16.4333 1.39942 16.4333 1.7V15.3C16.4333 15.6006 16.3139 15.8888 16.1014 16.1014C15.8888 16.3139 15.6006 16.4333 15.3 16.4333H1.7C1.39942 16.4333 1.11115 16.3139 0.898611 16.1014C0.68607 15.8888 0.566666 15.6006 0.566666 15.3V1.7C0.566666 1.39942 0.68607 1.11115 0.898611 0.898611C1.11115 0.68607 1.39942 0.566666 1.7 0.566666Z" stroke="black"/>
</svg>
