<svg width="18" height="18" viewBox="0 0 18 18" fill="none" xmlns="http://www.w3.org/2000/svg">
<path d="M16.5635 1.94766C16.4957 1.88907 16.4131 1.85011 16.3248 1.83499C16.2364 1.81988 16.1456 1.82917 16.0622 1.86188L1.81266 7.43836C1.63934 7.50618 1.4927 7.6284 1.39477 7.78666C1.29683 7.94492 1.25289 8.13069 1.26953 8.31606C1.28617 8.50143 1.36251 8.67639 1.48707 8.81468C1.61163 8.95297 1.77769 9.04711 1.96032 9.08297L5.76563 9.83039V14.0625C5.76571 14.2587 5.82442 14.4504 5.93422 14.613C6.04402 14.7756 6.19991 14.9017 6.38187 14.9751C6.56383 15.0484 6.76357 15.0658 6.95545 15.0248C7.14733 14.9839 7.3226 14.8865 7.45876 14.7452L9.33188 12.8025L12.2555 15.3654C12.434 15.5233 12.664 15.6106 12.9023 15.6108C13.0064 15.6105 13.1098 15.5942 13.2089 15.5623C13.3713 15.5109 13.5174 15.4178 13.6327 15.2923C13.7479 15.1669 13.8282 15.0134 13.8656 14.8472L16.7217 2.43071C16.7418 2.34342 16.7377 2.2523 16.7098 2.16718C16.6819 2.08206 16.6313 2.00616 16.5635 1.94766ZM2.1129 8.25258C2.1102 8.24532 2.1102 8.23734 2.1129 8.23008C2.11607 8.22763 2.11964 8.22573 2.12344 8.22446L13.3531 3.82852L6.08977 9.03164L2.12344 8.25539L2.1129 8.25258ZM6.85126 14.1588C6.83188 14.1789 6.80695 14.1928 6.77965 14.1987C6.75235 14.2046 6.72392 14.2022 6.69797 14.1919C6.67202 14.1816 6.64974 14.1637 6.63397 14.1407C6.61819 14.1176 6.60963 14.0904 6.60938 14.0625V10.414L8.69696 12.2421L6.85126 14.1588ZM13.0437 14.6566C13.0385 14.6804 13.027 14.7024 13.0104 14.7202C12.9939 14.738 12.9728 14.751 12.9495 14.7579C12.9257 14.7663 12.9 14.7681 12.8753 14.7631C12.8505 14.7582 12.8276 14.7466 12.8088 14.7298L6.86532 9.5161L15.6797 3.19922L13.0437 14.6566Z" fill="white"/>
</svg>
